<?xml version="1.0" encoding="utf-8"?>
<!-- Generator: Adobe Illustrator 21.0.0, SVG Export Plug-In . SVG Version: 6.00 Build 0)  -->
<!DOCTYPE svg PUBLIC "-//W3C//DTD SVG 1.1//EN" "http://www.w3.org/Graphics/SVG/1.1/DTD/svg11.dtd">
<svg version="1.1" id="Layer_1" xmlns="http://www.w3.org/2000/svg" xmlns:xlink="http://www.w3.org/1999/xlink" x="0px" y="0px"
	 viewBox="0 0 361.9 69.8" style="enable-background:new 0 0 361.9 69.8;" xml:space="preserve">
<style type="text/css">
	.st0{fill:#FFFFFF;}
	.st1{clip-path:url(#SVGID_3_);}
</style>
<path class="st0" d="M4,23.6l5.1-10.4c0.9-1.9,2-3.8,3.3-5.4c1.1-1.4,2.4-2.7,3.9-3.8c1.4-1,2.9-1.8,4.5-2.4s3.3-1,5-1.2
	C27.7,0.1,29.5,0,31.4,0H44c2.2,0,4.4,0.1,6.5,0.3c1.5,0.2,3.1,0.4,4.5,1c1,0.4,2,1,2.7,2c0.6,0.9,0.8,2,0.7,3
	c0,1.2-0.4,2.5-0.8,3.7c-0.6,1.5-1.3,3-2,4.5L55.3,15H42.6l1.1-2.2c0.1-0.3,0.4-1,0.3-1.3c-0.1-0.2-0.4-0.4-0.6-0.4
	c-0.7-0.2-1.6-0.2-2.3-0.2H29.4c-1.1,0-2.3,0.1-3.4,0.4c-0.9,0.3-1.7,0.7-2.4,1.2c-0.7,0.6-1.3,1.3-1.9,2c-0.6,0.9-1.1,1.8-1.6,2.8
	L18.2,21c-0.5,1-1,2-1.3,3.1c-0.1,0.5-0.3,1.2-0.1,1.7c0.1,0.3,0.4,0.5,0.7,0.7c0.7,0.3,1.8,0.3,2.6,0.3h11.4c1,0,2,0,3-0.1
	c0.7-0.1,1.3-0.2,1.9-0.5c0.6-0.3,1-0.7,1.4-1.2c0.6-0.7,1.1-1.6,1.4-2.4l0.2-0.5h12.7l-2.2,4.6c-0.6,1.2-1.2,2.4-2,3.5
	s-1.7,2.1-2.7,3.1c-1.1,1-2.3,1.8-3.6,2.4c-1.5,0.7-3,1.2-4.6,1.6c-1.9,0.4-3.9,0.5-5.9,0.5h-17c-1.8,0-3.5-0.1-5.3-0.3
	c-1.4-0.2-2.8-0.6-4-1.3c-1.1-0.6-2-1.5-2.5-2.7c-0.5-1.3-0.5-2.8-0.3-4.1C2.4,27.2,3.2,25.3,4,23.6L4,23.6z M55.3,23.6l5.1-10.4
	c0.9-1.9,2-3.8,3.3-5.4c1.1-1.4,2.4-2.7,3.9-3.8c1.4-1,2.9-1.8,4.5-2.4s3.3-1,5-1.2C78.9,0.1,80.8,0,82.7,0h17.2
	c1.8,0,3.5,0.1,5.3,0.3c1.4,0.2,2.8,0.6,4,1.3c1.1,0.6,2,1.5,2.5,2.7c0.5,1.3,0.5,2.8,0.3,4.1c-0.3,1.9-1.1,3.8-1.9,5.5L105,24.3
	c-0.9,1.9-2,3.8-3.3,5.4c-1.1,1.4-2.4,2.7-3.9,3.8c-1.4,1-2.9,1.8-4.5,2.4c-1.6,0.6-3.3,1-5,1.2c-1.8,0.2-3.7,0.3-5.6,0.3H65.3
	c-1.8,0-3.5-0.1-5.3-0.3c-1.4-0.2-2.8-0.6-4-1.3c-1.1-0.6-2-1.5-2.5-2.7C53,31.8,53,30.3,53.2,29C53.7,27.2,54.5,25.3,55.3,23.6
	L55.3,23.6z M71.3,17.3L69.5,21c-0.5,1-1,2-1.3,3.1c-0.1,0.5-0.3,1.2-0.1,1.7c0.1,0.3,0.4,0.5,0.7,0.7c0.7,0.3,1.8,0.3,2.6,0.3h13.7
	c1,0,2.1-0.1,3-0.3c0.8-0.2,1.5-0.6,2.1-1.1c0.7-0.5,1.3-1.2,1.8-2c0.7-1,1.2-2.1,1.7-3.1l1.8-3.8c0.4-0.9,0.9-1.8,1.1-2.8
	c0.1-0.5,0.2-1.2,0.1-1.7c-0.1-0.4-0.5-0.7-0.9-0.8c-0.8-0.4-2-0.4-2.8-0.4H80.6c-1.1,0-2.3,0.1-3.4,0.4c-0.9,0.3-1.7,0.7-2.4,1.2
	c-0.7,0.6-1.3,1.3-1.9,2C72.3,15.3,71.8,16.3,71.3,17.3L71.3,17.3z M150.8,22.6c0.6,0.4,1,0.9,1.3,1.5c0.4,0.9,0.4,1.9,0.2,2.8
	c-0.2,1.3-0.8,2.6-1.3,3.8l-3.1,6.4h-12.7l2.7-5.5c0.4-0.7,0.8-1.8,0.9-2.6c0-0.3,0-0.5-0.2-0.7c-0.5-0.3-1.4-0.3-1.9-0.3h-16.3
	l-4.4,9.1h-12.7L121,0.4h32.9c1.6,0,3.6,0.2,5.1,0.8c1.2,0.5,2.2,1.3,2.7,2.6c0.5,1.2,0.4,2.5,0.1,3.8c-0.3,1.5-1,3.1-1.7,4.5
	l-1.1,2.2c-0.5,1.1-1.1,2.2-1.8,3.3c-0.6,1-1.4,1.8-2.2,2.6c-0.9,0.8-1.9,1.4-2.9,1.9C151.7,22.3,151.2,22.5,150.8,22.6L150.8,22.6z
	 M128.6,10.9l-3.3,6.7h16.3c0.7,0,1.5-0.1,2.2-0.3c0.6-0.2,1.1-0.5,1.5-1c0.5-0.5,0.9-1.2,1.2-1.8l0.6-1.2c0.2-0.4,0.6-1.3,0.5-1.8
	c0-0.2-0.3-0.3-0.5-0.4c-0.7-0.2-1.7-0.2-2.4-0.2H128.6L128.6,10.9z M159,23.6l5.1-10.4c0.9-1.9,2-3.8,3.3-5.4
	c1.1-1.4,2.4-2.7,3.9-3.8c1.4-1,2.9-1.8,4.5-2.4s3.3-1,5-1.2c1.8-0.2,3.7-0.3,5.6-0.3h17.2c1.8,0,3.5,0.1,5.3,0.3
	c1.4,0.2,2.8,0.6,4,1.3c1.1,0.6,2,1.5,2.5,2.7c0.5,1.3,0.5,2.8,0.3,4.1c-0.3,1.9-1.1,3.8-1.9,5.5l-5.1,10.4c-0.9,1.9-2,3.8-3.3,5.4
	c-1.1,1.4-2.4,2.7-3.9,3.8c-1.4,1-2.9,1.8-4.5,2.4c-1.6,0.6-3.3,1-5,1.2c-1.8,0.2-3.7,0.3-5.6,0.3h-17.2c-1.8,0-3.5-0.1-5.3-0.3
	c-1.4-0.2-2.8-0.6-4-1.3c-1.1-0.6-2-1.5-2.5-2.7c-0.5-1.3-0.5-2.8-0.3-4.1C157.4,27.2,158.2,25.3,159,23.6L159,23.6z M175.1,17.3
	l-1.8,3.8c-0.5,1-1,2-1.3,3.1c-0.1,0.5-0.3,1.2-0.1,1.7c0.1,0.3,0.4,0.5,0.7,0.7c0.7,0.3,1.8,0.3,2.6,0.3h13.7c1,0,2.1-0.1,3-0.3
	c0.8-0.2,1.5-0.6,2.2-1.1s1.3-1.2,1.8-2c0.7-1,1.2-2.1,1.7-3.1l1.8-3.8c0.4-0.9,0.9-1.8,1.1-2.8c0.1-0.5,0.2-1.2,0.1-1.7
	c-0.1-0.4-0.5-0.7-0.9-0.8c-0.8-0.4-2-0.4-2.8-0.4h-12.6c-1.1,0-2.3,0.1-3.4,0.4c-0.9,0.3-1.7,0.7-2.4,1.2c-0.7,0.6-1.3,1.3-1.9,2
	C176.1,15.3,175.6,16.3,175.1,17.3L175.1,17.3z M249.9,24.4l11.6-24h12.7l-17.8,36.7h-17.8l-7.4-24l-11.6,24h-12.7l17.8-36.7h17.8
	L249.9,24.4L249.9,24.4z M287.4,10.3l-1.9,3.8h26.1l-4.4,9h-26.1l-1.9,3.8h28.1l-4.9,10.2h-40.8l17.8-36.7h40.2l-4.8,9.9L287.4,10.3
	L287.4,10.3z M325,26.4h24.1l-5.2,10.8H307l17.8-36.7h12.7L325,26.4L325,26.4z"/>
<path class="st0" d="M50.2,23.3h-9.7c-0.4,0.8-0.9,1.7-1.5,2.4c-0.5,0.6-1.1,1.2-1.9,1.6c-0.7,0.4-1.6,0.6-2.4,0.7
	c-1,0.1-2.1,0.1-3.1,0.1H20.2c-1,0-2.1-0.1-3.1-0.4c-0.7-0.3-1.3-0.7-1.5-1.5s-0.1-1.7,0.1-2.4c0.3-1.1,0.8-2.2,1.4-3.3l1.8-3.8
	c0.5-1,1.1-2,1.7-3c0.6-0.9,1.3-1.6,2.1-2.3c0.9-0.7,1.8-1.1,2.9-1.5c1.2-0.4,2.5-0.5,3.8-0.5h11.7c0.9,0,1.8,0,2.7,0.3
	c0.7,0.2,1.3,0.6,1.5,1.3s0,1.6-0.4,2.3l-0.2,0.3h9.7c0.7-1.3,1.3-2.7,1.8-4.1c0.4-1,0.7-2.2,0.8-3.3c0-0.8-0.1-1.6-0.5-2.2
	c-0.5-0.7-1.3-1.2-2.1-1.5c-1.3-0.5-2.7-0.7-4.1-0.9c-2.1-0.2-4.3-0.3-6.4-0.3H31.4c-1.8,0-3.6,0.1-5.4,0.3
	c-1.6,0.2-3.2,0.6-4.8,1.2C19.7,3.3,18.3,4.1,17,5c-1.4,1-2.6,2.2-3.6,3.5c-1.3,1.6-2.3,3.3-3.2,5.2l-5,10.5
	c-0.8,1.6-1.5,3.4-1.8,5.1c-0.2,1.1-0.3,2.3,0.2,3.4c0.4,0.9,1,1.6,1.9,2.1c1.1,0.6,2.3,0.9,3.6,1.1c1.7,0.3,3.4,0.3,5.1,0.3h17.3
	c1.9,0,3.8-0.1,5.6-0.5c1.5-0.3,3-0.8,4.3-1.4c1.2-0.6,2.3-1.3,3.3-2.2c0.9-0.8,1.8-1.8,2.5-2.8s1.3-2.2,1.9-3.3L50.2,23.3
	L50.2,23.3z M56.5,24.2c-0.8,1.6-1.5,3.4-1.8,5.1c-0.2,1.1-0.3,2.3,0.2,3.4c0.4,0.9,1,1.6,1.9,2.1c1.1,0.6,2.3,0.9,3.6,1.1
	c1.7,0.3,3.4,0.3,5.1,0.3h17.2c1.8,0,3.6-0.1,5.4-0.3c1.6-0.2,3.2-0.6,4.8-1.2c1.5-0.5,2.9-1.3,4.2-2.2c1.4-1,2.6-2.2,3.6-3.5
	c1.3-1.6,2.3-3.3,3.2-5.2l5.1-10.4c0.8-1.6,1.5-3.4,1.8-5.1c0.2-1.1,0.3-2.3-0.2-3.4c-0.4-0.9-1-1.6-1.9-2.1
	c-1.1-0.6-2.3-0.9-3.6-1.1c-1.7-0.3-3.4-0.3-5.1-0.3H82.7c-1.8,0-3.6,0.1-5.4,0.3c-1.6,0.2-3.2,0.6-4.8,1.2C71,3.4,69.6,4.1,68.4,5
	c-1.4,1-2.6,2.2-3.6,3.5c-1.3,1.6-2.3,3.3-3.2,5.2L56.5,24.2L56.5,24.2z M70.1,16.7c0.5-1,1.1-2,1.7-3c0.6-0.9,1.3-1.6,2.1-2.3
	c0.9-0.7,1.8-1.1,2.9-1.5c1.2-0.4,2.5-0.5,3.8-0.5h12.6c1.1,0,2.4,0.1,3.4,0.5c0.7,0.3,1.4,0.9,1.6,1.7s0.1,1.7-0.1,2.5
	c-0.3,1-0.7,2-1.2,3l-1.8,3.8c-0.5,1.1-1.1,2.3-1.8,3.3c-0.6,0.8-1.3,1.6-2.1,2.3c-0.8,0.6-1.7,1-2.6,1.3c-1.1,0.3-2.3,0.4-3.4,0.4
	H71.4c-1,0-2.1-0.1-3.1-0.4c-0.7-0.3-1.3-0.7-1.5-1.5s-0.1-1.7,0.1-2.4c0.3-1.1,0.8-2.2,1.4-3.3L70.1,16.7L70.1,16.7z M121.8,1.7
	l-16.5,34.1h9.7l4.4-9.1h17.1c0.8,0,1.9,0.1,2.6,0.5c0.7,0.4,0.9,1.2,0.8,2c-0.1,1-0.6,2.1-1.1,3l-1.7,3.6h9.7l2.8-5.7
	c0.5-1.1,1-2.3,1.2-3.4c0.1-0.6,0.1-1.4-0.1-2c-0.2-0.4-0.4-0.7-0.8-0.9l-2.2-1.5l2.5-0.9c0.4-0.1,0.8-0.3,1.2-0.5
	c0.9-0.5,1.8-1,2.6-1.7s1.4-1.5,2-2.4c0.7-1,1.2-2,1.7-3.1l1.1-2.2c0.6-1.3,1.2-2.7,1.6-4.2c0.2-1,0.3-2.1-0.1-3
	c-0.3-0.9-1.1-1.5-2-1.8c-1.3-0.6-3.1-0.7-4.6-0.7L121.8,1.7L121.8,1.7z M127.8,9.5h17c0.9,0,1.9,0,2.8,0.3c0.7,0.2,1.3,0.7,1.4,1.4
	c0.1,0.8-0.3,1.9-0.6,2.6l-0.6,1.2c-0.4,0.8-0.9,1.5-1.5,2.2c-0.6,0.6-1.2,1-2,1.3s-1.8,0.4-2.7,0.4h-18.4L127.8,9.5L127.8,9.5z
	 M160.2,24.2c-0.8,1.6-1.5,3.4-1.8,5.1c-0.2,1.1-0.3,2.3,0.2,3.4c0.4,0.9,1,1.6,1.9,2.1c1.1,0.6,2.3,0.9,3.6,1.1
	c1.7,0.3,3.4,0.3,5.1,0.3h17.2c1.8,0,3.6-0.1,5.4-0.3c1.6-0.2,3.2-0.6,4.8-1.2c1.5-0.5,2.9-1.3,4.2-2.2c1.4-1,2.6-2.2,3.6-3.5
	c1.3-1.6,2.3-3.3,3.2-5.2l5.1-10.4c0.8-1.6,1.5-3.4,1.8-5.1c0.2-1.1,0.3-2.3-0.2-3.4c-0.4-0.9-1-1.6-1.9-2.1
	c-1.1-0.6-2.3-0.9-3.6-1.1c-1.7-0.3-3.4-0.3-5.1-0.3h-17.2c-1.8,0-3.6,0.1-5.4,0.3c-1.6,0.2-3.2,0.6-4.8,1.2
	c-1.5,0.5-2.9,1.3-4.2,2.2c-1.4,1-2.6,2.2-3.6,3.5c-1.3,1.6-2.3,3.3-3.2,5.2L160.2,24.2L160.2,24.2z M173.9,16.7c0.5-1,1.1-2,1.7-3
	c0.6-0.9,1.3-1.6,2.1-2.3c0.9-0.7,1.8-1.1,2.9-1.5c1.2-0.4,2.5-0.5,3.8-0.5H197c1.1,0,2.4,0.1,3.4,0.5c0.8,0.3,1.4,0.9,1.6,1.7
	c0.2,0.8,0.1,1.7-0.1,2.5c-0.3,1-0.7,2-1.2,3l-1.8,3.8c-0.5,1.1-1.1,2.3-1.8,3.3c-0.6,0.8-1.3,1.6-2.1,2.3c-0.8,0.6-1.7,1-2.6,1.3
	c-1.1,0.3-2.3,0.4-3.4,0.4h-13.7c-1,0-2.1-0.1-3.1-0.4c-0.7-0.3-1.3-0.7-1.5-1.5s-0.1-1.7,0.1-2.4c0.3-1.1,0.8-2.2,1.4-3.3
	L173.9,16.7L173.9,16.7z M241.6,1.7h-16L209,35.8h9.7l12.8-26.3l8.1,26.3h16l16.5-34.1h-9.7L249.7,28L241.6,1.7L241.6,1.7z
	 M314.1,8.9l3.5-7.2h-37.2l-16.5,34.1h37.9l3.6-7.5h-28.1l3.2-6.5h26.1l3.1-6.4h-26.1l3.2-6.5H314.1L314.1,8.9z M335.4,1.7h-9.7
	l-16.5,34.1H343l3.9-8.1h-24.1L335.4,1.7L335.4,1.7z"/>
<path class="st0" d="M356.3,26.3c3.1,0,5.6,2.5,5.6,5.6s-2.5,5.6-5.6,5.6s-5.6-2.5-5.6-5.6C350.8,28.8,353.3,26.3,356.3,26.3
	L356.3,26.3z"/>
<g>
	<g>
		<path id="SVGID_2_" class="st0" d="M356.3,27.6c2.3,0,4.2,1.9,4.2,4.2s-1.9,4.2-4.2,4.2c-2.3,0-4.2-1.9-4.2-4.2
			C352.1,29.5,354,27.6,356.3,27.6L356.3,27.6z"/>
	</g>
	<g>
		<defs>
			<path id="SVGID_1_" d="M356.3,27.6c2.3,0,4.2,1.9,4.2,4.2s-1.9,4.2-4.2,4.2c-2.3,0-4.2-1.9-4.2-4.2
				C352.1,29.5,354,27.6,356.3,27.6L356.3,27.6z"/>
		</defs>
		<use xlink:href="#SVGID_1_"  style="overflow:visible;fill:#FFFFFF;"/>
		<clipPath id="SVGID_3_">
			<use xlink:href="#SVGID_1_"  style="overflow:visible;"/>
		</clipPath>
		<g class="st1">
			<g>
				<rect id="SVGID_5_" x="352.1" y="27.6" class="st0" width="8.4" height="8.4"/>
			</g>
		</g>
	</g>
</g>
<path class="st0" d="M253.5,61.4h-0.3l-0.3,0.3l0.4,0.2l-2.5,1.1l0.8,0.2l0.1,0.5l0.8-0.1l-0.4,0.1l-0.7-0.2l-0.4,0.3l-0.4-0.5
	l-9.5,2.8h-1.5l-1.1,0.4h0.3l0.3-0.3l-1.5-0.1l1.8-0.7l-1.9-0.3l-1.1,0.4l0.7-0.1l1.8-0.8l-0.7-0.1l0.3-0.3l-2-0.5l2.3,0.2l-0.1-0.7
	h-1.5l-0.5-1l2.2-0.5l-2.3-0.2l4.8-0.9l-3,0.2l1.5-0.4l-1.5-0.1l8.9-1.5l0.4,0.2l1.5-0.4h1.5l-2.5,0.9l2.7,0.2l1.4-0.5l0.4,0.2
	l-1.1,0.7h1.5l-0.7,0.3l0.8,0.2l-0.7,0.6l1.1,0.1L253.5,61.4z M253.5,52.5l-3.7,0.5l-0.4,0.3l2.7,0.1l1.2,0.6H253l-1.1-0.1l-0.4,0.3
	l1.2,0.4l-0.7,0.3l-2.7-0.2l-2.2,0.8l4.2-0.1l-7.4,1l-4.9,0.2l1.1-0.4l-1.1-0.1l1.4-0.4l-4.5-0.1l0.4-0.3l-0.4-0.2l0.7-0.6l-0.8-0.1
	l1.4-0.7h-1.9l2.8-1.2l-1.9-0.3l1.1-0.4h-1.5l2.9-0.7l-0.4-0.2l8.5-1.2l4.5-0.1l0.1,0.5l-2.2,0.8l2.6-0.1l-0.7,0.6l1.1,0.1l0.1,0.5
	l-0.7,0.3L253.5,52.5z M239.8,65.7l-0.7,0.1l-0.3,0.3l1.1,0.1l0.4-0.3L239.8,65.7z M241.6,65.6l-0.8,0.1l-0.3,0.3l1.1,0.1l0.4-0.3
	L241.6,65.6z M240.6,55.3l-0.4,0.1l-0.3,0.3l0.8,0.2l0.3-0.3L240.6,55.3z M242.7,65.3h-0.3l-0.3,0.3l1.1,0.1l0.3-0.3L242.7,65.3z
	 M242.5,55.3l-0.8,0.1l-0.4-0.2l-0.2,0.8l1.5-0.2l0.3-0.3L242.5,55.3z M244.2,64.8l-0.7,0.1l-0.3,0.3l1.1,0.1l0.3-0.3L244.2,64.8z
	 M245.1,54.9l-1.9,0.3l-0.3,0.3l2.3-0.1l0.4-0.3L245.1,54.9z M245.6,64.3l-0.8,0.1l-0.4,0.3l1.2,0.1l0.4-0.3L245.6,64.3z
	 M246.9,59.3l-2.3,0.3l-0.3,0.3l2.7-0.1l0.3-0.3L246.9,59.3z M251,65.1h-0.3l-2.4-0.5l1.2-0.2l0.7,0.2l0.1,0.5H251z M252,61.2
	l-0.8,0.1l-0.3,0.3h1.5l0.4-0.3L252,61.2z"/>
<path class="st0" d="M265.9,69.8l-0.8-1.5l-0.8-0.2l0.1,0.5l0.3,0.2c-1.1-2.7-2-5.4-2.9-8.2c-0.8-2.8-1.5-5.8-1.9-8.9
	c-0.3,1.5-0.4,3-0.1,4.7c0.2,1.6,0.5,3.2,0.7,4.8l2.6,7.1c-0.8-2.2-1.6-4.4-2.2-6.6c-0.7-2.2-1.1-4.5-1.2-7l0.4-7l0.5-0.1l0.1-2.9
	l-0.6-0.4l0.5-0.3l-0.3-0.2l0.5-0.3l-0.6-0.2l0.7-0.4l-0.8-0.2l5.6-1.3l-2.4-0.2l1-0.1l7.1-0.5l1-0.4l2.9,0.1c0.4-0.6,1-0.9,1.7-1
	s1.4-0.2,2.1-0.3h2.9l1-0.4l-0.5,0.1l-0.2,0.3l0.4,0.7l0.8-0.1l0.7-0.4l-0.8,0.1l0.1,0.5l-1.8,0.8l1.4,0.1l-0.5,0.3l0.6,0.2
	l-0.8,0.4l1.1,0.1l0.7-0.4l-0.5,0.1l-0.8,0.4l0.1,1.1l1.6-0.2l-2,0.8h1.9l-2.1,0.5l0.1,0.8l0.8-0.1l-0.7,0.4l0.3,0.2l-4.3,1.6h2.1
	l3.8-1.3l-0.5,0.1c-2.7,1.1-5.5,1.8-8.5,2.1s-5.9,0.7-8.9,1.1l-0.1,4.8l0.5-0.1l1-0.4l0.6,0.2l11.7-1.9l3.5,0.3l0.4-0.6l0.3,0.2
	l-0.5,0.1l0.1,1l1.1-0.1l0.4-0.6v0.3l-1.2,0.7v1.6l0.8,0.1l0.2-0.3l-0.3-0.2l0.5-0.1v0.3l-1.3,0.4l0.1,0.8l1.6-0.2v0.3l-0.5,0.3
	l0.3,0.5l-2,0.8l0.8,0.2v0.3l-0.5,0.1l0.1,0.5l-0.5,0.1l0.1,0.8l1.6-0.2L286,58v0.3l-1.8,0.5l-1.9-0.3l-2,0.8
	c-0.9-0.2-1.9-0.3-2.9-0.2c-1.1,0.1-2.1,0.2-3.1,0.3l-5.7,1.1l0.1,0.8l0.8,1.7l-0.8-1.5v1.8l1.2,3l-0.3-0.2l-0.2,0.8l0.3,0.2
	l-1.1-2.2l-0.1,1.4l1.2,3l-0.8-2l-0.8,0.1l0.1,0.8l0.3,0.2l-0.8-0.2l0.1,0.5l0.3,0.2h-0.3l-0.6-0.4l-0.2,0.6h-0.3l-1.1-0.6l-0.1,1.1
	L265.9,69.8z M260.3,50.7l-0.1-0.8l0.1-1.1l-0.3-0.2l-0.2,2.2l0.3,0.2L260.3,50.7z M260.5,48l-0.3-0.2l-0.2,0.3l0.3,0.2L260.5,48z
	 M261.2,50.9l-0.1-1l-0.3-0.2l-0.1,1.3l0.3,0.2L261.2,50.9z M261.2,47.2l-0.3-0.2l-0.2,0.3l0.3,0.2L261.2,47.2z M261.2,45.6v-0.3
	l-0.3-0.3l-0.2,0.6l0.3,0.2L261.2,45.6z M261.3,46.3V46l-0.3-0.2l-0.2,0.6l0.3,0.2L261.3,46.3z M263.9,65.1l-0.3-0.2l-0.2,0.3
	l0.3,0.2L263.9,65.1z M264.8,67.9l-0.3-0.2l-0.2,0.3l0.3,0.2L264.8,67.9z M265.8,66.9l-0.3-0.2l-0.3,0.3l0.3,0.2L265.8,66.9z
	 M266.3,68.5v-0.3L266,68l-0.2,0.6l0.3,0.2L266.3,68.5z M266.3,53.3l-0.3-1.8l0.2-2.4l-0.8-0.2l0.4,4.5l0.3,0.2L266.3,53.3z
	 M266.1,48.6l-0.3-0.2l-0.2,0.3l0.3,0.3L266.1,48.6z M268.4,63.1l-0.1-0.5l-0.3-0.2l-0.2,0.8l0.3,0.2L268.4,63.1z M268.5,60.2
	l-0.3-0.2l-0.2,0.3l0.3,0.2L268.5,60.2z M277.1,47.1l-10.2,1.2l-0.2,0.3l10.2-1.1L277.1,47.1z M270.4,59.9l-0.6-0.2l-0.2,0.3
	l0.6,0.2L270.4,59.9z M279.2,58.4l-6.6,0.6l-0.2,0.3l6.6-0.6L279.2,58.4z M281.3,58.7h-2.1L279,59l2.7,0.2l0.2-0.3L281.3,58.7z
	 M277.7,39.8l-0.3-0.2l-0.2,0.3l0.3,0.2L277.7,39.8z M278.9,39.4l-0.3-0.2l-0.3,0.3l0.3,0.2L278.9,39.4z M283.9,58l-0.3-0.2
	l-0.2,0.3l0.3,0.2L283.9,58z M284.2,52.7l-0.6-0.2l-0.2,0.3L284,53L284.2,52.7z"/>
<path class="st0" d="M309.8,63.8v-0.2l-0.6-1l-0.4,0.5l0.3,0.2l-0.9-1.9l-1.4-0.5c-0.5,0.8-1.1,1.3-1.9,1.5s-1.5,0.5-2.3,0.9
	c-0.7,0.4-1.5,0.7-2.3,1s-1.6,0.4-2.5,0.3h0.2l0.2-0.2l-3.2-1.1c0.3,0.1,0.6,0.2,0.8,0.3c0.2,0.1,0.5,0.2,0.8,0.2s0.6,0,0.9,0
	s0.6-0.1,0.9-0.1l0.2-0.2l-2-0.2l0.2-0.3l-5.1-2.1l0.2-0.2l-1-0.5l0.2-0.2c-0.5-0.7-1-1.4-1.4-2.1c-0.4-0.7-0.8-1.5-1.1-2.3
	c-0.3-0.8-0.6-1.6-0.8-2.4c-0.2-0.9-0.5-1.7-0.9-2.5L287,51l0.3,0.2c0-0.9,0-1.8,0-2.6c0-0.9,0-1.7,0-2.5s0.1-1.6,0.1-2.4
	c0-0.8,0.1-1.7,0.3-2.6v0.2l-0.1,1.1l0.3,0.2l0.8-3.8l0.2,0.2l0.2-0.5v0.2l-0.2,0.5l0.3,0.2l0.3-1.1l0.1,0.4l0.4-0.1l0.5-1.2h0.2
	l0.4,1l-0.2,0.5l0.5,0.8l0.3-0.9h0.2l-0.7,2.9l0.3,0.4l0.2,6.1l0.3,0.2c0.1-0.3,0.1-0.6,0.1-0.9c0-0.3-0.1-0.6-0.1-0.9
	c0-0.3,0-0.6,0.2-0.8s0.2-0.5,0-0.8l0.1,0.6l0.2,3l2.1,4.3l-0.2,0.3l0.7,0.3l-0.2,0.3l2.6,1.4l0.4-0.3L299,55l0.4-0.5l-0.5-0.2h0.2
	l1.1,0.1L302,53l-0.3-0.4l1-0.8l0.7-1.2l-0.2-0.2l0.3-0.7l-0.3-0.2c0.1-0.6,0.1-1.2,0.1-1.8s-0.1-1.1-0.2-1.7
	c-0.1-0.6-0.2-1.1-0.1-1.7c0.1-0.6,0.1-1.2,0.2-1.8l-0.3-0.2l-0.1,0.9l-0.1-0.7l0.2-0.2l-0.4-1.1l0.7-2.7l-0.3,0.7l0.3,0.2l0.9-1
	l0.4-1.6l0.3,0.4l0.8-0.3l0.3-1.2l0.2,0.2l0.6-0.5h-0.2l-0.2,0.2l1.1,0.1L307,36l0.3,0.2l-0.2,0.2l0.5,0.2l0.3,0.4l0.7-1l0.7,1.9
	l0.1-0.5l1.1,6.2v3l3.4,13.7l-0.3-0.2l-0.1,0.7l0.2,0.2l-1-2.5l-0.1,0.7l0.2,0.2l-0.4,0.1l0.1,0.4l0.6,2.3l-0.1-0.6l-1.2-0.3
	l-0.3,0.9l0.3,0.2l-0.2,0.3l-0.3-0.6l-0.4,0.1l-0.2,0.3l0.3,0.2l-0.7-0.5v1.3l-0.3-0.6L309.8,63.8z M287.6,49.2l-0.1-0.9l-0.2-0.2
	l-0.1,1.1l0.3,0.2L287.6,49.2z M288.3,53.7v-0.2l-0.2-0.2l-0.2,0.5l0.3,0.2L288.3,53.7z M288.4,52.8l-0.1-0.4l-0.3-0.2l-0.1,0.7
	l0.2,0.2L288.4,52.8z M287.7,46.7l-0.2-0.2l-0.2,0.2l0.3,0.2L287.7,46.7z M288.9,54.9v-0.2l-0.2-0.2l-0.1,0.7l0.3,0.2L288.9,54.9z
	 M289.2,55.5v-0.2l-0.3-0.2l-0.1,0.5l0.2,0.2L289.2,55.5z M287.9,44.7l-0.1-0.6l-0.2-0.2l-0.1,1.1l0.3,0.2L287.9,44.7z M287.9,43
	v-0.2l-0.3-0.2l-0.1,0.7l0.2,0.2L287.9,43z M288.2,45.1l-0.3-0.2l-0.2,0.2l0.2,0.2L288.2,45.1z M288.2,43.8l-0.1-0.4l-0.2-0.2
	l-0.1,0.7l0.3,0.2L288.2,43.8z M290,56.7l-0.2-0.2l-0.2,0.3l0.3,0.2L290,56.7z M290.3,57.3v-0.2l-0.3-0.2l-0.1,0.5l0.2,0.2
	L290.3,57.3z M290.6,57.7l-0.2-0.2l-0.2,0.2l0.3,0.2L290.6,57.7z M290.9,58.1l-0.3-0.2l-0.2,0.2l0.2,0.2L290.9,58.1z M291,58.7
	l-0.3-0.2l-0.2,0.2l0.2,0.2L291,58.7z M288.7,40.9l-0.2-0.2l-0.2,0.2l0.3,0.2L288.7,40.9z M291.2,59.1L291,59l-0.2,0.2l0.3,0.2
	L291.2,59.1z M291.5,59.8l-0.3-0.2l-0.2,0.3l0.2,0.2L291.5,59.8z M291.7,59.5l-0.2-0.2l-0.2,0.2H291.7z M289.2,39.5l-0.3-0.2
	l-0.2,0.2l0.2,0.2L289.2,39.5z M292,60.1l-0.3-0.2l-0.2,0.3l0.2,0.2L292,60.1z M292.1,60.8l-0.3-0.2l-0.2,0.2l0.2,0.2L292.1,60.8z
	 M289.5,39.3l-0.2-0.2l-0.2,0.3l0.2,0.2L289.5,39.3z M292.9,60.7l-0.7-0.3l-0.2,0.3l0.7,0.3L292.9,60.7z M292.6,59.8l-0.3-0.2
	l-0.2,0.2H292.6z M293.9,61.2l-0.2-0.2l-0.2,0.3l0.3,0.2L293.9,61.2z M295.9,61.4l-0.3-0.2l-0.2,0.3l0.2,0.2L295.9,61.4z
	 M297.7,63.1L297,63l-0.2,0.3l0.7,0.1L297.7,63.1z M298.5,63l-0.3-0.2l-0.2,0.3l0.2,0.2L298.5,63z M299.8,55.1l-0.5-0.1l-0.2,0.2
	l0.5,0.2L299.8,55.1z M301.2,63.7l-0.7-0.1l-0.2,0.2l0.7,0.1L301.2,63.7z M300.7,54.8l-0.3-0.2l-0.2,0.3l0.2,0.2L300.7,54.8z
	 M302.2,62.4l-0.3-0.2l-0.2,0.3l0.2,0.2L302.2,62.4z M301.8,53.5l-0.3-0.2l-0.2,0.2l0.2,0.2L301.8,53.5z M303.5,62.3l-0.3-0.2
	l-0.2,0.3l0.2,0.2L303.5,62.3z M302.5,53.9l-0.2-0.2l-0.2,0.2l0.3,0.2L302.5,53.9z M302.6,52.8l-0.3-0.2l-0.2,0.3l0.2,0.2
	L302.6,52.8z M302.7,53.6l-0.3-0.2l-0.2,0.3L302.7,53.6z M303.9,62l-0.3-0.2l-0.2,0.2l0.2,0.2L303.9,62z M302.7,52.3l-0.2-0.2
	l-0.2,0.2l0.3,0.2L302.7,52.3z M303.1,52.9l-0.3-0.2l-0.2,0.2l0.2,0.2L303.1,52.9z M303.4,52.2l0.1-0.5l-0.2-0.2l-0.4,0.5
	L303.4,52.2z M303.9,49.9l-0.2-0.2l-0.2,0.2l0.2,0.2L303.9,49.9z M304,50.4l-0.2-0.2l-0.2,0.2l0.2,0.2L304,50.4z M304,48.8l-0.1-0.4
	l-0.3-0.2l-0.1,0.7l0.2,0.2L304,48.8z M304.1,49.5l-0.3-0.2l-0.2,0.2l0.2,0.2L304.1,49.5z M303.3,42.2l-0.1-0.6l-0.2-0.2l-0.1,0.9
	l0.3,0.2L303.3,42.2z M304.1,48.2l-0.3-1.9l-0.2-0.2l0.1,2.2l0.3,0.2L304.1,48.2z M306.1,61l-0.5-0.2l-0.2,0.3l0.5,0.1L306.1,61z
	 M303.4,41.3l-0.1-0.6l-0.3-0.2l-0.1,0.9l0.2,0.2L303.4,41.3z M303.8,44.3l-0.3-0.2l-0.2,0.3l0.2,0.2L303.8,44.3z M303.5,40.4
	l-0.1-0.4l-0.2-0.2l-0.1,0.7l0.3,0.2L303.5,40.4z M306.3,60.8l-0.2-0.2l-0.2,0.2H306.3z M303.8,39.5l-0.5-0.1l-0.2,0.2l0.5,0.2
	L303.8,39.5z M306.5,60.3l-0.3-0.2l-0.2,0.2l0.2,0.2L306.5,60.3z M307.2,60.6l-0.2-0.2l-0.2,0.2l0.3,0.2L307.2,60.6z M308,60.3
	l-0.2-0.2l-0.2,0.3l0.3,0.2L308,60.3z M308.1,61.2l-0.2-0.2l-0.2,0.3l0.3,0.2L308.1,61.2z M305.1,37.8l-0.3-0.2l-0.2,0.2l0.2,0.2
	L305.1,37.8z M308.7,62l-0.2-0.2l-0.2,0.3l0.3,0.2L308.7,62z M306.1,37.2V37l-0.2-0.2l-0.2,0.5l0.3,0.2L306.1,37.2z M306.5,36.7
	l-0.3-0.2l-0.2,0.2l0.2,0.2L306.5,36.7z M306.9,36.4v-0.2l-0.3-0.2l-0.1,0.5l0.2,0.2L306.9,36.4z M310.6,61.5l-0.2-0.2l-0.2,0.2
	l0.3,0.2L310.6,61.5z M310.7,62.1l-0.2-0.2l-0.2,0.3l0.3,0.2L310.7,62.1z M311.3,61.6l-0.3-0.2l-0.2,0.3l0.2,0.2L311.3,61.6z
	 M308.7,37l-0.1-0.7l-0.7,0.1l0.1,0.7L308.7,37z M308.6,37.5l-0.2-0.2l-0.2,0.3l0.3,0.2L308.6,37.5z M309.9,43.9l-0.2-0.2l-0.2,0.3
	l0.3,0.2L309.9,43.9z M310.1,45.8l-0.2-0.2l-0.2,0.2L310,46L310.1,45.8z M310.3,46.7l-0.2-0.2l-0.2,0.2l0.3,0.2L310.3,46.7z
	 M312.3,61.2l-0.2-0.2l-0.2,0.2l0.3,0.2L312.3,61.2z M310.9,49.4l-0.2-1.7l-0.3-0.2l0.1,2.4l0.2,0.2L310.9,49.4z M311.6,53.5
	l-0.5-3.4l-0.2-0.2l-0.2,1.8l0.7,2.1L311.6,53.5z M312.1,55.2l-0.1-0.9l-0.3-0.2l-0.1,1.1l0.2,0.2L312.1,55.2z M312.5,56.6l-0.1-0.4
	l-0.2-0.2l-0.1,0.7l0.3,0.2L312.5,56.6z M313,58.5l-0.1-0.7l-0.3-0.2l-0.1,0.9l0.2,0.2L313,58.5z"/>
<path class="st0" d="M318.6,62.3l-0.5-0.2l-0.1-0.7l-0.5,0.1l-0.1-0.7l-0.5,0.1l-0.2-1.2l-0.7,0.1l-3.3-16.6l0.6,4.5l0.3,0.2
	l-0.7-6.7l-0.4-1.2l0.1,0.9l0.3,0.2l-0.3-3.9l0.7,3.3l-0.1-4.1l0.6,0.7l0.1-1l0.4,0.7l0.1-1l0.3,0.7l0.2-0.3l0.3,0.5v-1.5l0.5,1.6
	l0.1-0.8l0.3,0.5l0.4-1l0.7,3.1l0.2-0.8c0.1,1,0.5,1.8,1,2.5s1,1.5,1.4,2.2L320,42l0.7,1.4l0.7-0.1l-0.1-0.7
	c0.7,1.4,1.5,2.7,2.5,3.9s2,2.5,2.9,3.6l0.4-0.5l-0.6-0.9V49c0.4,0.7,1,1.3,1.7,1.8s1.5,0.8,2.4,1c0.4-0.9,0.5-1.7,0.5-2.6
	c0-0.9-0.1-1.8-0.3-2.8l-4.3-9.9l0.3,0.2l0.1-1.2l0.3,0.2l0.1-1.2l0.3,0.2l0.2-0.5l0.3,0.2l0.1-1.5l0.3,0.2l0.1-1l0.8,0.6l0.2-0.5
	l0.5,0.4l0.2-0.8h0.2l0.5,0.4l0.2-0.5l1.8,2.4l1,0.4c1,1.3,1.9,2.7,2.8,4.1c0.8,1.4,1.4,3,1.6,4.8c0,2.1,0,4.3-0.1,6.6
	c0,2.3-0.3,4.5-0.8,6.7c-0.7,0.7-1.7,1.2-2.9,1.5c-1.2,0.3-2.3,0.5-3.4,0.6c-1.7-0.3-3.2-0.8-4.7-1.7s-3-1.8-4.4-2.9l-0.2,0.5l1,3.3
	h-0.2c-0.2-1.4-0.4-2.8-0.7-4.2c-0.3-1.3-0.8-2.5-1.6-3.6v1.7l2.2,8.9h-0.2l-0.2-1.2l-0.5,0.1l-0.1-0.5l-0.5,0.1l-0.2,0.3l0.3,0.5
	l-0.5,0.1l0.1,0.7l0.4,0.9H321l-0.4-1.2l-0.1,0.8L318.6,62.3z M315.6,60.5l-0.4-3.1l-1.2-5.2l0.4,2.6l1.5,5.6L315.6,60.5z
	 M314.5,50.7l-0.4-2.6l-0.3-0.2l0.2,2.9l0.3,0.2L314.5,50.7z M314.2,46.6l-0.6-4l-0.3-0.2l0.4,4.3l0.3,0.2L314.2,46.6z M315.2,53.8
	l-0.4-2.6l-0.3-0.2l0.2,2.9l0.3,0.2L315.2,53.8z M314.8,49.4l-0.2-1.2l-0.3-0.2l-0.1,1.5l0.3,0.2L314.8,49.4z M315.7,56.1l-0.3-1.9
	l-0.3-0.2v2.2l0.3,0.2L315.7,56.1z M314.1,42.9l-0.3-0.2l-0.2,0.3l0.3,0.2L314.1,42.9z M315.4,52v-0.3l-0.3-0.2l-0.2,0.5l0.3,0.2
	L315.4,52z M316.3,58.5l-0.3-1.9l-0.3-0.2l0.1,2.2l0.3,0.2L316.3,58.5z M315.2,48.6l-0.3-0.2l-0.2,0.3l0.3,0.2L315.2,48.6z
	 M316.1,55.1v-0.3l-0.3-0.2l-0.2,0.5l0.3,0.2L316.1,55.1z M316.6,57.5v-0.2l-0.3-0.2l-0.2,0.5l0.3,0.2L316.6,57.5z M314.2,38.3
	l-0.1-0.7l-0.3-0.2l-0.1,1l0.3,0.2L314.2,38.3z M315.5,37.2v-0.3l-0.3-0.2l-0.2,0.5l0.3,0.2L315.5,37.2z M318.8,60.8v-0.2l-0.3-0.2
	l-0.2,0.5l0.3,0.2L318.8,60.8z M318.9,61.3l-0.3-0.2l-0.2,0.3l0.3,0.2L318.9,61.3z M320.8,50.8l-0.3-0.2l-0.2,0.3l0.3,0.2
	L320.8,50.8z M321.5,51.7l-0.3-0.2l-0.2,0.3l0.3,0.2L321.5,51.7z M321.6,52.4v-0.2l-0.3-0.2l-0.2,0.5l0.3,0.2L321.6,52.4z
	 M320.6,43.5l-0.3-0.2l-0.2,0.3l0.3,0.2L320.6,43.5z M323.7,55.3v-0.2l-2-2.4l-0.1,1.5l1.9,1.5L323.7,55.3z M320.9,44l-0.3-0.2
	l-0.2,0.3l0.3,0.2L320.9,44z M322.3,52.8l-0.3-0.2l-0.2,0.3l0.3,0.2L322.3,52.8z M322.6,53.2l-0.3-0.2l-0.2,0.3l0.3,0.2L322.6,53.2z
	 M322.9,46.6l-0.3-0.2l-0.2,0.3l0.3,0.2L322.9,46.6z M324.2,55.7l-0.3-0.2l-0.2,0.3L324,56L324.2,55.7z M324.9,55.6l-0.3-0.2
	l-0.2,0.3l0.3,0.2L324.9,55.6z M324.5,49.1l-0.3-0.2l-0.2,0.3l0.3,0.2L324.5,49.1z M325.5,56l-0.3-0.2l-0.2,0.3l0.3,0.2L325.5,56z
	 M324.8,49.5l-0.3-0.2l-0.2,0.3l0.3,0.2L324.8,49.5z M326,56.6l-0.3-0.2l-0.2,0.3l0.3,0.2L326,56.6z M326.5,56.8l-0.3-0.2l-0.2,0.3
	l0.3,0.2L326.5,56.8z M326.1,50.3l-0.3-0.2l-0.2,0.3l0.3,0.2L326.1,50.3z M327.6,57.2l-0.3-0.2l-0.2,0.3l0.3,0.2L327.6,57.2z
	 M327.7,55l-0.3-0.2l-0.2,0.3l0.3,0.2L327.7,55z M328.1,57.3l-0.3-0.2l-0.2,0.3l0.3,0.2L328.1,57.3z M327.9,51v-0.3l-0.8-0.6
	l-0.2,0.5l0.8,0.6L327.9,51z M327.9,52.2l-0.3-0.2l-0.2,0.3l0.3,0.2L327.9,52.2z M328.6,57.5l-0.3-0.2l-0.2,0.3l0.3,0.2L328.6,57.5z
	 M328.4,52.7l-0.3-0.2l-0.2,0.3l0.3,0.2L328.4,52.7z M329.1,57.7l-0.3-0.2l-0.2,0.3l0.3,0.2L329.1,57.7z M331.3,46.9l-0.2-1.2
	l-4.4-8.9l-0.1,1c1,1.5,1.8,3,2.4,4.7c0.5,1.6,1.2,3.2,2.1,4.7L331.3,46.9z M327.4,36.7l-0.1-0.5L327,36l-0.1,0.7l0.3,0.2
	L327.4,36.7z M329.6,52.2l-0.3-0.2l-0.2,0.3l0.3,0.2L329.6,52.2z M327.7,37.2l-0.3-0.2l-0.2,0.3l0.3,0.2L327.7,37.2z M330.9,58.2
	l-0.5-0.2l-0.2,0.3l0.5,0.2L330.9,58.2z M327.8,35.7l-0.1-0.7l-0.3-0.2l-0.1,1l0.3,0.2L327.8,35.7z M330.1,52.4l-0.3-0.2l-0.2,0.3
	l0.3,0.2L330.1,52.4z M328.3,38l-0.3-0.2l-0.2,0.3l0.3,0.2L328.3,38z M330.4,52.9l-0.3-0.2l-0.2,0.3l0.3,0.2L330.4,52.9z
	 M328.8,39.4l-0.3-0.2l-0.2,0.3l0.3,0.2L328.8,39.4z M328.9,38.7l-0.3-0.2l-0.2,0.3l0.3,0.2L328.9,38.7z M328.8,34.3l-0.3-0.2
	l-0.2,0.3l0.3,0.2L328.8,34.3z M329.9,42l-0.1-0.5l-0.3-0.2l-0.1,0.8l0.3,0.2L329.9,42z M330.2,42.9l-0.1-0.5l-0.3-0.2l-0.2,0.8
	l0.3,0.2L330.2,42.9z M331.5,51.7v-0.2l-0.3-0.2l-0.2,0.5l0.3,0.2L331.5,51.7z M329.5,34l-0.1-0.5l-0.6-0.4l-0.1,0.7l0.5,0.4
	L329.5,34z M330.6,43.8v-0.2l-0.3-0.2l-0.2,0.5l0.3,0.2L330.6,43.8z M330.7,43.1l-0.3-0.2l-0.2,0.3l0.3,0.2L330.7,43.1z M331,44.8
	v-0.3l-0.3-0.2l-0.2,0.5l0.3,0.2L331,44.8z M331.7,50.2l-0.3-0.2l-0.2,0.3l0.3,0.2L331.7,50.2z M330.4,33.6v-0.3l-0.8-0.8l-0.1,0.8
	l0.8,0.6L330.4,33.6z M332,48.7v-0.2l-0.3-0.2l-0.2,0.5l0.3,0.2L332,48.7z M335.4,57.8l-0.8-0.1l-0.2,0.3l0.7,0.1L335.4,57.8z
	 M336.1,57.2l-0.1-0.7l-0.3-0.2l-0.6,0.8L336.1,57.2z M336.1,55.5l-0.3-0.2l-0.2,0.3l0.3,0.2L336.1,55.5z M336.8,56.9l0.8-2.8
	l-0.3-0.2l-0.7,1.8l-0.5,0.1l-0.1,1L336.8,56.9z M337.6,53.6l0.2-1.8l-0.3-0.2l-0.5,2l0.3,0.2L337.6,53.6z M336.9,41.7l-0.3-0.2
	l-0.2,0.3l0.3,0.2L336.9,41.7z M337.6,47.2l-0.1-0.7V45l-0.3-0.2l-0.2,2.5l0.3,0.2L337.6,47.2z"/>
</svg>
