<?xml version="1.0" encoding="utf-8"?>
<!-- Generator: Adobe Illustrator 21.0.0, SVG Export Plug-In . SVG Version: 6.00 Build 0)  -->
<!DOCTYPE svg PUBLIC "-//W3C//DTD SVG 1.1//EN" "http://www.w3.org/Graphics/SVG/1.1/DTD/svg11.dtd">
<svg width="124" height="37" viewBox="0 0 124 37" xmlns="http://www.w3.org/2000/svg">
    <g fill="none" fill-rule="evenodd">
    <path d="M24.733 36.24c.236.015.58.024.858.025-.293-.015-.577-.02-.857-.024zm-14.11.034h-.012l-1.06.01c.278 0 .625-.003 1.073-.01zm39.205-3.966l.008-.432c-.31 2.285-.69 2.62-.674 3.653.09-.814.493-2.162.666-3.222zM13.934 36.23c.172 0 .356-.003.55-.007l-.55.008zm73.174.41c-.004-.003-.004-.005-.007-.008h-.077c.03.004.055.005.085.007zm-2.255.014c.67-.008 1.48-.01 2.17-.02-.772-.057-1.255-.02-2.17.02zm6.27-.264l.076-.005c-.142.005-.21.01-.077.005zm-.67.048c-1.33.096-3.69-.04-3.352.194.634-.008 1.153-.022 1.34-.05l-.104.026s1.24-.073 2.116-.17zm-9.296-.014c.33.04.152.116 1.387.106l.504-.12a38.37 38.37 0 0 1-1.89.014zm-5.07-35.417v.007l-.004.013-.005.03v.004L75.57.91 56.19 3.803c.634-.24 1.582-.156 2.212-.37 4.94-.767 9.66-1.512 9.12-1.515-.008.02-3.302.513-6.625 1.01-.42.063-.84.126-1.254.19l.2-.067c3.103-.52 12.006-1.907 9.396-1.503.17-.174 1.584-.284 1.488-.41 1.64-.282 3.004-.494 4.243-.675l.46-.067.056-.008h.006c1.19 1.236.33.344.595.62zm-3.41 35.405l-.065-.002c-.054-.024-.103-.05-.153-.074.06-.063.115-.125.162-.184h.297l-.01.042-.003.023c.05-.04.072-.06.08-.065l-.31.26zm-14.09-.316c-.875.044-2.165-.332-2.902-.552.53.136 1.11.247 1.74.336.39.082.775.15 1.154.198.014.006.018.012.007.018zm-3.46-29.388l-.712.097c.25-.034.498-.077.716-.15l.404-1.705c-.04-.415.053-.694.233-.885l-.64 2.643zm-.773.106l-.7.095c.22-.038.46-.064.7-.096zm.986-1.668l.178-.73-.132.56-.084.37.038-.2zm.263-1.12l.03-.12a.345.345 0 0 1 .06-.077c0-.002.002-.002.002-.003-.02.027-.038.058-.06.095l-.033.138v-.033zm.538-.38c-.056.035-.103.03-.15.024l.15-.023zm3.56-.57l-.41.094-.467.07c-.06-.002.282-.064.878-.165zM50.22 29.55l-.007.034-.017-.07c.016-.03-.007-.07-.026-.108l.01-.054a.177.177 0 0 1 .046 0l.014.08-.02.118zm-.017-.315h.002c0 .012.004.024.006.036l-.016.01.01-.045zm-1.33-21.672c.328-.06.67-.12 1.033-.185l.114.028-1.148.157zm-9.906 1.353c.056-.01.11-.022.17-.034.634-.094.972-.135 1.143-.145l-1.313.18zm-1.99.272l-.17-.12c.18.042.382.063.637.056l-.467.064zm-.756-.49c-1.618-.907-3.85-1.35-6.3-1.176.355-.082-1.308.023-.168-.155 1.3.006 1.903-.113 2.92.1-.193.004-.385.004-.578.032.94.02 3.26.603 4.174 1.2.002.006-.018.003-.047-.003zM28.71 7.654c-.763.115-1.497.285-2.194.498l-.06.003c.718-.34 2.866-.63 3.31-.62-.35.028-.7.066-1.056.12zM7.885 36.172l-.225-.02h.682a9.924 9.924 0 0 1-.457.02zm-3.68-.02h1.768c-.365.036-.772.07-1.767 0zm-3.753.01c-.028 0-.047-.005-.07-.01h.062l.008.01c.013 0 .027 0 .04-.003l.002-.008h.048c-.017.003-.033.006-.05.007v.027L.49 36.2v.005c.128.15.065.078-.038-.043zm-.24-.285l-.046-.053h.008l.046-.004-.01.057zM122.743 14.17l-.486-.147a42.026 42.026 0 0 0-1.84-.51l.4.207c-2.184-.605-4.278-1.353-5.486-1.643 1.54.605-1.128-.25-1.6-.35 1.482.498 3.755 1.074 4.033 1.178l2.87.768c.054.003 1.025.327 1.905.627l.325.11c-.003-.116 1.102 1.372.634.743l-.008.203c-.006.204-.01.386-.01.53.003.288.024.424.083.277.015.846-.092 1.193-.158 1.08l.077 2.367c-.05.267-.17-.238-.162-.517.002-.938-.1-2.467.024-3.37-.036-.386-.07-.21-.097-.146a1.093 1.093 0 0 1-.053-.342c.064.007-.583-.864-.31-.496l-.4-.11c-2.703-.97-6.017-1.824-7.927-2.524.426.172.876.31.3.202l-1.296-.49c-1.1-.305-1.71-.34-2.48-.65-.31-.018 1.935.665 2.622.925-1.135-.064-2.25-.83-3.45-.972-.54.007 2.9.83 1.887.737l-1.506-.493c.94.485 2.463.69 2.852.99l-1.74-.526-.497-.15c-.08-.03-4.546-1.372-4.546-1.372.183-.074 1.855.36 2.526.572-.586-.255-1.772-.582-2.405-.766l1.14.397c-1.29-.38-1.422-.297-2.24-.5l-1.43-.43-.445-.135c-.31-.13.262-.055-.11-.212-1.84-.475-.63-.183-.62-.035-1.45-.416-1.773-.582-3.67-1.134 1.105.285 1.417.303 2.476.66l-.3-.202c-1.262-.326-2.288-.53-3.66-.853l-.42-.128-.37-.11c-.163-.08-1.14-.36-2.527-.765L76.147 1.082c-.29-.376.694.642-.667-.77l-.707.085c-1.27.153-2.58.32-3.924.496-2.687.354-5.508.754-8.427 1.183-.653.126-1.212.25-.29.15 1.457-.28 2.22-.296 1.153-.063-1.584.283.157-.13-1.7.243l.907-.1c-1.84.287-2.768.474-3.843.748l-2.757.377c-.815.642-.325.196-.477.336l-.05.202-.083.34-.166.684-.323 1.352-.865.125-1.395.203-2.77.412c-3.67.546-7.22 1.064-10.402 1.38l-2.14.436c-.288-.15-.552-.382-1.047-.614.37.178.936.598.8.523-1.42-.964-3.092-1.44-4.754-1.582.17.028.336.087.503.13-1.583-.368-4.473.044-6.12.443-.013.022-1.03.417-.906.436-.295.088-.584.2-.868.328L25.39 7.5c.64.407.493.203.235-.154l-.09-.124c.31.18.227.064.076-.146l.164-.315c-.478-.678-.13-.194-.24-.343l-.36.058c-.317.04-.248-.097-.248-.097-.077-.106-.114-.157-.08-.108l-.146.28-.538.088-1.83.3c-2.423.393-4.746.764-6.75.988.378-.01-.02.086-.158.132-1.57.255-.38.01-.76.02-.152.11-1.558.37-3.62.703-1.032.168-2.227.354-3.513.55-.64.098-1.306.2-1.984.3l-1.026.154c-.524.536-.248.742-.412 1.13-.965 5.537-1.99 11.307-2.114 12.597.073-.384.145-.773.146-.627C1.542 26.58.91 30.44.29 34.26l-.184 1.13c-.12-.107-.048.298-.048.298L0 36.045c.29.576.288.16.446.288l.54-.002c.14.168 3.035-.01 3.035-.01 1.89-.01 3.74-.02 5.53-.037-1.102-.005-1.09-.07-1.103-.13h1.977c-.175.02-.863.032.187.12 1.138-.012 2.25-.026 3.324-.042-1.06.01-1.716-.032-2.252-.078h3.198c.405.05 1.185.09 1.162.147-.062-.18 2.663-.038 4.13-.06l.372-.088H23.5c-.627.01-1.252.02-1.847.025.817.107 1.877.05 3.08.064 1.913.034 3.035-.12 4.72-.026l-1.61.046c.22.115 3.36-.117 3.275.087 1.486-.098.175-.143.09-.195h2.63c.053.01 2.544 0 2.544 0-.286.028-.53.062-.85.088-.402-.02-1.515-.03-1.68-.072-.27.037-.716.086-.195.125 1.717.01 4.363.016 4.822-.14h2.058c-.314.06-.974.156-2.25.148.894.075 1.2-.014 2.11.02l1.25-.137-.805.024 8.03-.055 1.246-6.483c.017.047.036.096.05.142l-.174.958c-.153.815-.3 1.597-.368 2.137.086-.526.126-.65.208-1.03.114-.512.226-1.07.338-1.642l.032-.17c.24 1.13.643 2.152 1.016 2.844-.092-.37.57.67-.286-.974-.186-.232-.378-.874-.406-.75-.22-.767-.1-.63-.206-1.145l-.063-.26.023-.112c.578 2.96 1.844 4.796 4.88 5.728 1.133.572 3.965.81 4.398.885.386-.012-.698-.116.35-.096 3.297-.04 6.11.09 9.19.093 1.543-.092-1.484-.054-1.645-.11a92.424 92.424 0 0 1 1.475-.015c.13.005.255.006.38 0h1.48c.005.005.78 0 .78 0 .226.048.262.21.832.208.165.144.314.143.383.085.578-.483.05-.04.243-.204l14.092-.11c.055.038 1.66 0 1.66 0 .766.062 1.152.04 1.466-.004h.737l.986-.003c.04.02.693 0 .693 0l1.25-.002c.027.025-.132.05-.77.084 1.89-.04 3.285.002 4.87.036-.458-.04-.646-.034-1.294-.066.766-.006 1.714-.037 2.657-.06l.565-.002 1.53-.002c.853.15 3.398.102 5.554.112l-1.397-.042c.067-.03 1.125-.078 1.125-.078h.99c.538.062.9.134 1.64.08-.746-.05-.826-.068-.74-.083l1.01-.002h.39c.006.044.022.087.363.1.732-.047-.58-.066-.287-.1h.49c.67.075.916.035 1.19-.003l1.24-.002c.04.004-.755.108-.755.108 1.9-.08 4.535-.11 6.88-.108l-.224.13c.86-.056 2.077-.047 2.23.067-2.71-.028-3.174.274-4.823.142-.76.032-2.014.145-3.308.08l.49-.082c-2.063.006-4.307-.02-6.196.02.548.057-.035.122-.884.138-1.306-.025.392-.056-.156-.113-.8-.148-3.117.07-4.055.07.29-.033-2.51-.076-.802-.148-2.055-.035-3.52.168-4.88.004-.202.05-.693.132-1.264.156l.037-.123-.684.09c-1.378-.002-2.06-.243-3.447-.138.264-.01.806-.018.847.046-.123.107-2.76.137-2.237.276l1.15-.09c-.402.1 1.105.076.8.15l3.12-.073-.67.05c-.908.22 1.506-.024 2.408.1 2.725-.015 1.13-.008 3.362.058l.682-.088c.1-.024-2 .104-1.965-.017 1.43-.082 3.396-.064 4.926-.168l-1.187.21c.505-.12 1.474.1 2.98.076l-1.294-.066c1.088-.186 3.665-.013 5.386-.126-.47 0-.94 0-1.018-.057.395-.057 1.508-.023 2.157.01-.252.212-4.068.11-3.644.274 1.965.018 3.632-.234 4.84-.184l-.977.122.95-.04c.125-.106.94 0 1.7-.03l-.506.12h1.406a76.05 76.05 0 0 1 6.098.006l-1.205-.05c.1-.024.758-.03 1.317-.015-.167-.073-1.674-.05-1.56-.115.982.01 1.536.037 2.09.068.276.016.552.034.88.05.166.01.344.017.542.026.554-.365-.645.837 1.015-.826l.005-.127.012-.347c-.05-.202-.19 1.26-.236-.35.106.125.15-1.27.253-.207-.076-1.377.083-1.047-.04-2.148.006.134 0 .336-.006.54-.066.357-.064-.583-.08-.964.076-.634.14-.99.16-2.017l-.07-2.178c-.002-2.067.068-4.3.006-5.82-.048-.203-.112-.783-.107.344-.096-.872-.004-2.065.04-2.99l.112.78c-.013-1.316.018-2.76.038-4.175l.013-1.053v-.13c-1.326-1.872-.368-.58-.665-.98l-.286-.088zM69.83 36.424c-.847-.04-1.964-.038-3.045-.03.142.005.285.01.426.017 1.39.043 2.742.084 4.088.106l.278.003a11.13 11.13 0 0 0-1.66-.138c-.077.016-.153.032-.087.043zm30.362-.257l-2.102.13 3.586-.072-1.484-.058zm13.288-24.382l.084.032.363.104-.447-.136zM97.05 7.3l.064.063c.067.005.076-.006-.064-.064zm20.715 5.605l.03.015c0-.003-.01-.008-.03-.015zM25.073 6.49c-.476-.66.14.194-.12-.165l-.003.005-.024.048.088.122.06-.01zm.462.732l.09.124.02-.004.034-.006h.002a3.45 3.45 0 0 0-.12-.167l-.003.007-.025.045zm61.91 29.222c-.365-.025-1.43.08-1.585-.034-1.494-.017.816.107-.59.106-.38.016 2.064-.007 2.176-.072zm17.956-27.28c-.166-.03-.227-.03-.03.052l.03-.05zm-61.677 27.12l1.985.004-2.627-.045.643.042zm13.753-.212c-.153-.025-.33-.053-.528-.083l.528.082zM111.12 10.95c-1.326-.473-.624-.125-1.42-.337.24.073.465.145.662.182-.69-.26.47.1.76.154zm-5.8-1.33c-.342-.13-1.103-.285-1.712-.505.527.177 1.46.564 1.713.504zM80.235 36.405c.003 0 .004.003.007.004.326.002.614.01.917.014-.148-.018-.4-.027-.923-.018zM109.7 10.613l-.338-.097c.14.043.245.072.34.097zm-4.284-1.468l-.015.02c.082.016.187.04.303.066l-.287-.085zm2.748.896l1.23.256c-.447-.136-1.53-.457-1.23-.255zm-.425-.17l-1.162-.363c.046-.07.07-.107.782.12-.162-.084-.817-.233-1.187-.328l.265.088c-.165-.025-.474-.098-.735-.157 1.032.325 1.76.758 2.036.64zM76.464 36.49l.93-.005c-.54-.012-.804-.007-.93.006zm2.7.152a.122.122 0 0 0-.04.032c.137-.01.125-.022.04-.032zm-22.217-.653c-.275-.037-.53-.1-.805-.16.257.06.54.127.805.16zm18.537.617c1.463.043.605-.074.98-.116l-1.327.01.347.107zm3.24-.177l1.308.025c-.406.098-1.6.007-1.813.096.057.042.73.067.944.092.287-.173 1.696.002 1.077-.232-.408-.004-.877 0-1.516.02zm-5.348.004l-.006-.002h-.028c.012 0 .023 0 .035.002zm.97.044a10.837 10.837 0 0 0 .001 0zm.616-.01l1.643-.17c-1.25.113-2.692-.11-2.938.103l-.636-.073.34.105c.372.013.71.03.976.046-.443-.04-.634-.098-.01-.125l.625.114z" fill="#000"/>
    <path d="M74.782 5.106L75.57.908l-19.753 2.95-.69 2.85-18.15 2.48c-1.866-1.404-4.932-2.036-8.27-1.533a14.761 14.761 0 0 0-4.352 1.35l1.22-2.36L4.47 9.993.166 36.153h48.708l1.33-6.922c.825 4.92 3.278 6.922 11.82 6.922h10.51l1.744-9.664s-3.346.137-3.53.14c.016-.084 1.64-8.764 2.354-12.56 1.147-.11 3.1-.293 3.1-.293l1.713-9.082s-1.96.26-3.13.413" fill="#000"/>
    <path fill="#DE1818" d="M76.122 27.34l5.543-10.935-4.65-12.282 4.317 1.23 4.19 11.61L80.53 27.36"/>
    <path fill="#DE1818" d="M84.6 27.377l4.51-9.897-3.79-10.992 3.513 1 3.446 10.45-4.1 9.453"/>
    <path fill="#DE1818" d="M91.52 27.405l3.737-9.037-3.14-9.946 2.912.828 2.882 9.502-3.426 8.666"/>
    <path fill="#DE1818" d="M97.275 27.43l3.147-8.316-2.65-9.082 2.456.7 2.448 8.708-2.907 8"/>
    <path fill="#DE1818" d="M102.134 27.45l2.687-7.7-2.263-8.356 2.098.597 2.105 8.04-2.498 7.43"/>
    <path fill="#DE1818" d="M106.292 27.467l2.322-7.17-1.957-7.737 1.813.517 1.828 7.464-2.17 6.935"/>
    <path fill="#DE1818" d="M109.892 27.482l2.025-6.708-1.71-7.202 1.583.45 1.604 6.965-1.9 6.503"/>
    <path fill="#DE1818" d="M113.037 27.496l1.782-6.303-1.506-6.737 1.394.397 1.417 6.53-1.678 6.118"/>
    <path fill="#DE1818" d="M115.81 27.507l1.58-5.943-1.335-6.328 1.236.352 1.263 6.145-1.493 5.78"/>
    <path fill="#DE1818" d="M118.272 27.517l1.41-5.62-1.19-5.968 1.103.314 1.13 5.802-1.338 5.476"/>
    <path d="M120.586 12.697h-.11c-.257 0-.74-.128-.845-.36a1.507 1.507 0 0 1-.118-.626l.012-.227.037-.384.008-.17c.077-.24.463-.312.913-.356.168-.016.234-.04.235-.04l-.01-.183-.037-.1a.669.669 0 0 0-.223-.028c-.085.016-.77.09-.77.09-.122.03-.218.064-.29.102a.426.426 0 0 0-.132.105.46.46 0 0 0-.066.135l-.012.292-.025.366-.025.353-.01.22c0 .197.02.368.055.513a.78.78 0 0 0 .154.316c.067.08.155.14.274.18.128.05.297.074.5.074.074 0 .442.034.52.03l.015-.313-.047.01" fill="#221F20"/>
    <path d="M120.137 10.894v1.532a.945.945 0 0 0 .298.055c.046 0 .1-.004.156-.017l.047-.064v-1.47c-.024-.073-.1-.11-.23-.11a.444.444 0 0 0-.27.072m2.8.392s-.05-.453-.057-.502c-.068-.23-.226-.374-.505-.45-.026-.007-.44-.037-1.043-.095v.047a.56.56 0 0 1-.047.227l.154.03.56.037.04.022c.206.108.45.36.45.92l-.02.483a.974.974 0 0 1-.11.382.561.561 0 0 1-.308.266c-.103.037-.51.056-.664.056l-.06-.008a.097.097 0 0 0-.008.034l.01.098.008.16c.127.025.538-.002.672-.002.317 0 .546-.076.705-.222a2.769 2.769 0 0 0 .245-1.121l-.022-.362z" fill="#221F20"/>
    <path d="M121.397 12.12a.27.27 0 0 1 .042.113l.03.23c.085.004.155.01.213.01.057.005.105.01.14.017.056-.03.085-.088.085-.178 0-.016-.003-.035-.004-.058l-.01-.07c0-.023-.004-.045-.006-.064l-.005-.042a.126.126 0 0 0-.018-.055l-.04-.074a.957.957 0 0 1-.042-.073.14.14 0 0 1-.02-.05c0-.037.02-.067.06-.09a.742.742 0 0 0 .067-.19.89.89 0 0 0 .02-.195.707.707 0 0 0-.1-.38.562.562 0 0 0-.253-.11c-.1-.02-.224-.03-.37-.03h-.42c-.054.018-.08.065-.08.14v.188c.05.06.127.088.23.088h.05c.02-.003.144-.005.166-.006l.065-.006h.054a.194.194 0 0 1 .162.08c.018.023.03.045.04.068.008.02.012.037.012.05 0 .034-.01.067-.025.1a.264.264 0 0 1-.1.096l-.15.006c-.05 0-.2.005-.247.01a.86.86 0 0 0-.235.042c-.007.052-.013.095-.016.128a.583.583 0 0 0-.006.065c0 .07.022.122.063.16l.06-.002c.04-.002.1-.003.18-.003.043 0 .187 0 .225.004a.3.3 0 0 1 .105.023c.03.01.057.03.077.058" fill="#221F20"/>
    <path fill="#FFF" d="M21.95 8.99l-5.94 11.62 2.047 13.232-6.96.09-.908-10.027-1.707 10.06-6.063.08 3.81-22.712 6.248-.93-1.56 9.192 4.52-9.633M29.52 23.523c-1.357.846-2.17 1.528-2.452 2.053-.28.525-.506 1.268-.674 2.228-.192 1.1-.233 1.807-.123 2.122.11.314.414.464.91.45.474-.015.805-.15.994-.41.19-.258.378-.928.568-2.008l.777-4.435zm-1.9-2.753l-6.718.55.238-1.38c.274-1.59.69-2.838 1.25-3.747.56-.914 1.526-1.78 2.91-2.603 1.4-.835 3.157-1.39 5.287-1.66 2.617-.333 4.568-.187 5.808.45 1.257.646 1.93 1.55 2.007 2.71.076 1.16-.216 3.602-.874 7.31l-1.99 11.216-7.59.1.33-1.898c-.593.775-1.284 1.357-2.07 1.75-.777.387-1.652.585-2.62.596-1.25.013-2.332-.285-3.245-.885-.904-.596-1.174-1.92-.818-3.984l.29-1.678c.265-1.532.712-2.593 1.347-3.184.638-.594 2.11-1.344 4.454-2.264 2.574-1.02 4-1.692 4.227-1.998.228-.307.42-.912.58-1.816.198-1.133.228-1.862.09-2.184-.137-.323-.435-.46-.89-.41-.518.056-.863.233-1.037.532-.176.3-.367 1.044-.575 2.236l-.39 2.24zM51.342 9.736l-.913 3.173c1.775-2.418 4.01-3.874 6.737-4.352l-1.572 8.61c-1.782.157-3.105.452-3.984.885-.874.43-1.46.972-1.758 1.628-.3.655-.66 2.135-1.075 4.438l-1.692 9.35-8.733.112 4.054-22.73 8.936-1.114zm20.848-6.02l-.773 4.14 3.044-.37-.785 4.183-3.03.316-2.606 13.952c-.32 1.71-.377 2.657-.17 2.844.206.188 1.206.254 3.02.198l-.788 4.19-4.447.056c-2.435.032-4.128-.018-5.11-.15-.974-.13-1.788-.45-2.444-.954-.65-.503-1.005-1.082-1.063-1.74-.06-.66.135-2.215.587-4.673l2.315-12.604-2.156.225.713-3.897 2.165-.264.724-3.947L72.19 3.716zm6.972 27.287h-.092c-.277.007-.637.01-.79.01h-.277c-.123.022-.21.075-.26.16-.052.086-.077.21-.077.375 0 .384.25.575.752.575.04 0 .254-.004.35-.012.093-.008.196-.015.306-.023l.33-.024c.11-.01.198-.013.266-.013h.09c.17-.084.253-.235.254-.45-.01-.165-.023-.324-.038-.478-.2-.08-.47-.12-.814-.12m-2.305-1.99c-.097 0-.206.01-.326.033-.12.02-.254.06-.403.112l-.068 4.16.168.343h.775c.14-.004.113.008.21-.03.098-.036.133-.15.19-.21v-4.078c-.062-.22-.243-.33-.546-.33m3.433.331l-.107-.258a10.15 10.15 0 0 0-1.06-.05c-.4 0-1.038.018-1.335.05a1.04 1.04 0 0 0-.084.354c0 .027.004.065.01.114.01.048.018.1.028.157.01.057.02.115.027.174l.018.146c.123.043.268.075.435.095.165.023.354.033.563.033.303 0 .83-.003 1-.01.173-.01.336-.006.336-.006.117-.064.176-.188.176-.37a9.99 9.99 0 0 1-.008-.315v-.113zm5.225 2.059c-.327.123-.61.24-.848.345l-.07.032c-.237.108-.044.284-.2.284-.08 0-.617.043-.82.043-.09.007-.173.01-.262.01h-.095c-.103 0-.23-.035-.283-.095-.104-.108-.178-.224-.178-.35 0-.074.03-.178.095-.312a5.33 5.33 0 0 1 .215-.406c.08-.137.154-.26.223-.37.07-.11.108-.178.12-.205h.022c.062 0 .12.016.172.048a.736.736 0 0 1 .154.124c.05.05.29.48.334.54.043.062.085.12.127.173.15-.026.297-.075.446-.145.15-.07.29-.155.43-.256.015-.05.023-.1.023-.154 0-.144-.297-.7-.494-1.058a3.266 3.266 0 0 0-.384-.566c-.29-.015-.584-.032-.88-.05-.164.003-.31.02-.434.05a1.328 1.328 0 0 0-.345.136c-.508.965-.944 1.806-1.31 2.524a83.11 83.11 0 0 0-.902 1.816c.144.043.278.075.404.096.126.02.247.032.365.032.316 0 .542-.088.675-.265V33.4c0-.144.03-.25.096-.317a.584.584 0 0 1 .238-.145c.095-.03.2-.047.312-.056.07-.005.163-.01.246-.02l.2-.01h.003c.08-.005.16-.01.207-.01l.07-.004c.076 0 .19.01.274-.003.55 0 1.26.047 1.5.224.166.14.33.346.494.617h.685c.117 0 .22-.01.31-.03a.81.81 0 0 0 .228-.09c-.252-.488-.472-.91-.66-1.266-.19-.355-.357-.65-.5-.887m32.212-1.315h2.5l.106-.137c.04-.117.06-.242.06-.377 0-.262-.076-.438-.228-.53h-2.437l-.16.177v.13c0 .074-.005.19-.015.344 0 .177.058.308.176.394m-.002 1.721l2.24-.062a.544.544 0 0 0 .1-.29.954.954 0 0 0-.044-.235 2.784 2.784 0 0 1-.057-.252c-.276-.074-.622-.086-1.04-.086-.163.005-.31.008-.436.008h-.458c-.19 0-.29-.003-.305-.008l-.16.184v.103c0 .07-.005.175-.015.313 0 .182.058.29.176.328M88.175 29.03a2.757 2.757 0 0 0-.277-.017c-.23 0-.412.046-.545.137l-.07 4.23.108.226c.196.028.348.05.458.063.11.013.178.02.204.02.25 0 .436-.065.553-.193v-4.162l-.108-.257a3.953 3.953 0 0 0-.322-.048m32.054 3.513c-.022.01-.126.015-.314.015-.097 0-.217 0-.36-.003l-.488-.01h-.39c-.413 0-.762.044-1.047.135-.05.296-.075.474-.075.533a.547.547 0 0 0 .175.447h2.56l.145-.184c-.028-.19.023-.435.023-.543 0-.208-.077-.338-.23-.39m-5.495-1.865l-.022-.507c-.01-.16-.01-.275-.01-.35 0-.108 0-.208.006-.303.005-.094.015-.178.03-.253-.066-.215-.263-.323-.59-.323-.154 0-.278.02-.373.054a.469.469 0 0 0-.222.157.633.633 0 0 0-.112.258c-.02.102-.03.22-.03.355 0 .064.007.17.02.318l.044.464c.016.16.03.315.043.464.013.147.02.255.02.325 0 .72-.377 1.152-1.043 1.297-.02.124-.035.237-.046.34-.01.1-.015.192-.015.273 0 .155.053.27.162.346.107.074.255.112.445.112.542 0 1.003-.175 1.293-.524.29-.348.436-.888.436-1.62 0-.08-.005-.2-.012-.366l-.024-.515m1.869-1.665c-.312 0-.535.086-.667.256v4.134l.16.256h.63c.224 0 .382-.06.474-.184v-4.134c-.072-.22-.27-.328-.597-.328m-8.043 3.496a1.089 1.089 0 0 0-.145-.1c-.18-.108-.142-.09-.142-.09s.097-.127.107-.744v-.173c.008-.09.012-.17.012-.24v-.178c0-.714-.14-1.25-.423-1.61-.38-.273-1.072-.41-1.79-.41-.132 0-.24.02-.32.06-.083.04-.13.148-.14.32v.498c.032.2.18.305.446.315.17.017.303.053.403.11.1.055.32.123.375.205.053.08.09.167.107.26.018.095.027.182.027.262 0 .135-.032.23-.093.286a.318.318 0 0 1-.223.085.492.492 0 0 1-.203-.072c-.088-.05-.183-.103-.283-.166-.1-.06-.197-.116-.292-.164a.55.55 0 0 0-.226-.073c-.263.237-.393.47-.393.7 0 .048.013.09.04.125.024.035.05.064.08.09a.556.556 0 0 0 .11.067c.042.014.08.03.115.05.19.088.426.215.478.24.175.078.255.157.216.287-.018.06-.093.097-.204.125-.052.013-.25.017-.28.097l-.08.257a.737.737 0 0 0-.037.205c0 .2.068.34.203.427.135.084.324.128.564.128.118 0 .24-.012.368-.032a3.7 3.7 0 0 0 .415-.097.612.612 0 0 1 .284-.055c.07 0 .152.008.242.024.09.015.17.022.24.022.175 0 .305-.055.393-.168.08-.07.14-.144.176-.226a.565.565 0 0 0 .054-.24c0-.165-.06-.3-.184-.41m-9.93-.967c.087-.17.15-.348.188-.53.038-.18.057-.367.057-.554 0-.407-.095-.766-.283-1.077a1.667 1.667 0 0 0-.72-.32 5.62 5.62 0 0 0-1.048-.083h-1.19c-.152.055-.23.187-.23.402v.53c.144.165.362.248.654.248.035 0 .083 0 .14-.004.06-.003.413-.007.476-.014.065-.005.126-.01.185-.013.058-.003.108-.005.15-.005a.5.5 0 0 1 .272.07c.073.045.136.1.187.164.052.065.09.127.112.19a.45.45 0 0 1 .033.14.627.627 0 0 1-.073.287.736.736 0 0 1-.288.27c-.138.006-.278.01-.42.017-.14.005-.566.013-.7.023a3.87 3.87 0 0 0-.372.045 1.414 1.414 0 0 0-.296.075c-.02.15-.036.27-.046.36a2.11 2.11 0 0 0-.015.185c0 .198.06.35.177.456l.176-.007c.113-.006.28-.01.507-.01.123 0 .53.005.64.013.11.007.21.03.295.064.087.036.16.09.22.17a.701.701 0 0 1 .118.318l.093.654.597.027c.164.01.297.023.4.044.16-.08.238-.248.238-.506 0-.04-.004-.095-.012-.16l-.022-.197-.023-.184a.887.887 0 0 1-.01-.117c0-.037-.02-.09-.055-.158-.036-.066-.074-.136-.115-.208-.04-.072-.08-.14-.115-.205a.326.326 0 0 1-.054-.145c0-.1.056-.186.17-.256m2.275-2.526c-.067 0-.16.01-.28.033-.12.02-.27.06-.454.112a14.011 14.011 0 0 0-.057 1.182 57.232 57.232 0 0 0 .034 1.29l.024.734c.007.23.01.402.01.514 0 .23-.003.436-.012.62.22.096.425.144.618.144.224 0 .44-.073.65-.217v-4.083c-.093-.22-.27-.33-.535-.33m-6.383-.059c-.286 0-.51.067-.67.2v4.34c.268.107.512.16.732.16.12 0 .247-.016.386-.047l.115-.185v-4.153c-.062-.21-.25-.314-.563-.314m17.43 3.65a3.435 3.435 0 0 0-.315-.13l-.13-.04c-.406-.124-.454-.44-.464-.84v-.045c-.003-.12-.003-.25-.01-.38l-.04-2.02c-.118-.123-.32-.185-.608-.185-.297 0-.5.062-.606.186l-.07 2.833.132.822c.353.606.844.91 1.597.91.068 0 .282-.004.354-.01.072-.007.143-.015.214-.028a.725.725 0 0 0 .123-.425v-.45c-.018-.086-.078-.152-.175-.198"/>
    <path d="M105.11 32.52c-.168-.016-.446-.03-.54-.04-.095-.01-.15-.02-.166-.025-.236-.16-.353-.432-.353-.812 0-.037.005-.1.013-.185l.027-.274c.01-.097.02-.19.026-.28.008-.092.012-.165.012-.22v-.08c.154-.32.565-.482.944-.482a1.949 1.949 0 0 1 .207.014c.117-.077.176-.21.176-.403a5.773 5.773 0 0 1-.016-.337v-.13l-.115-.224a3.762 3.762 0 0 0-.66-.065c-.682 0-1.323.177-1.635.532-.102.278-.18.547-.23.807-.05.26-.077.52-.077.776l.035.444c.023.285.054.708.096 1.27.18.37.493.616.944.734.19.028.38.057.576.09.194.032.534.064.73.096.224-.027.336-.236.336-.628 0 0 .016-.163.016-.184v-.08c0-.184-.116-.287-.346-.314m-12.988-1.01c0-.055.016-.138.047-.25.03-.113.064-.234.102-.364.038-.128.073-.253.104-.374.03-.12.046-.213.046-.277 0-.177-.037-.337-.112-.48a1.13 1.13 0 0 0-.303-.365 1.608 1.608 0 0 0-.44-.246 2.022 2.022 0 0 0-.535-.116h-1.918l-.17.176c-.04.1-.068.194-.084.277a1.205 1.205 0 0 0-.023.223c0 .29.218.434.653.434h.1c.045 0 .097-.005.154-.012h.238c.302 0 .695.055.923.167a.388.388 0 0 1 .158.122c-.047.32-.27.482-.668.482a15.03 15.03 0 0 1-.567-.013h-.284c-.2 0-.354.027-.46.08-.11.053-.162.166-.162.338 0 .364.192.546.576.546.035 0 .082-.003.142-.005.058-.003.12-.008.184-.013.064-.007.417-.01.478-.014.06-.003.113-.005.154-.005.338 0 .576.098.714.29-.06.322-.297.483-.706.483-.03 0-.075 0-.13-.004-.057-.004-.406-.007-.464-.01l-.17-.007-.126-.004c-.256 0-.432.036-.526.11-.095.077-.142.216-.142.42 0 .224.07.417.208.577.138-.015.284-.024.438-.024.056 0 .136.003.24.005.106.003.504.007.614.014.11.005.216.01.32.013.1.003.178.005.23.005.506 0 .946-.103 1.32-.306.19-.284.284-.617.284-.998v-.113a.724.724 0 0 0-.008-.113c-.287-.188-.43-.405-.43-.65" fill="#FFF"/>
    </g>
</svg>